<mxfile host="65bd71144e">
    <diagram id="xnT2EUVrfSnyCZ4o1hl0" name="Page-1">
        <mxGraphModel dx="789" dy="561" grid="1" gridSize="10" guides="1" tooltips="1" connect="1" arrows="1" fold="1" page="1" pageScale="1" pageWidth="1100" pageHeight="1700" math="0" shadow="0">
            <root>
                <mxCell id="0"/>
                <mxCell id="1" parent="0"/>
                <mxCell id="4" value="components" style="text;strokeColor=none;fillColor=none;html=1;fontSize=24;fontStyle=1;verticalAlign=middle;align=center;fontColor=#990000;" vertex="1" parent="1">
                    <mxGeometry x="400" y="10" width="100" height="40" as="geometry"/>
                </mxCell>
                <mxCell id="5" value="/detail-tour/index.js&amp;nbsp; &amp;nbsp; &amp;nbsp; &amp;nbsp; &amp;nbsp; &amp;nbsp; &amp;nbsp; &amp;nbsp; &amp;nbsp; &amp;nbsp; &amp;nbsp; &amp;nbsp; &amp;nbsp; &amp;nbsp; &amp;nbsp; &amp;nbsp; &amp;nbsp; &amp;nbsp;/ui/link-button.js" style="text;strokeColor=none;fillColor=none;html=1;fontSize=18;fontStyle=1;verticalAlign=middle;align=center;labelBackgroundColor=default;fontColor=#808080;" vertex="1" parent="1">
                    <mxGeometry x="70" y="80" width="730" height="40" as="geometry"/>
                </mxCell>
                <mxCell id="6" value="" style="shape=doubleArrow;whiteSpace=wrap;html=1;" vertex="1" parent="1">
                    <mxGeometry x="400" y="100" width="100" height="10" as="geometry"/>
                </mxCell>
                <mxCell id="7" value="&amp;nbsp; &amp;nbsp; &amp;nbsp; &amp;nbsp; &amp;nbsp; &amp;nbsp; &amp;nbsp;TourDetail&amp;nbsp; &amp;nbsp; &amp;nbsp; &amp;nbsp; &amp;nbsp; &amp;nbsp; &amp;nbsp; &amp;nbsp; &amp;nbsp; &amp;nbsp; &amp;nbsp; &amp;nbsp; &amp;nbsp; &amp;nbsp; &amp;nbsp; &amp;nbsp; &amp;nbsp; &amp;nbsp; &amp;nbsp; &amp;nbsp; &amp;nbsp; &amp;nbsp; &amp;nbsp; LinkButton&amp;nbsp; &amp;nbsp; &amp;nbsp; &amp;nbsp; &amp;nbsp; &amp;nbsp; &amp;nbsp; &amp;nbsp;" style="text;strokeColor=none;fillColor=none;html=1;fontSize=18;fontStyle=1;verticalAlign=middle;align=center;labelBackgroundColor=default;fontColor=#990000;" vertex="1" parent="1">
                    <mxGeometry x="190" y="120" width="510" height="40" as="geometry"/>
                </mxCell>
                <mxCell id="8" value="&lt;div style=&quot;color: rgb(0 , 0 , 0) ; background-color: rgb(255 , 255 , 255) ; font-family: &amp;#34;consolas&amp;#34; , &amp;#34;courier new&amp;#34; , monospace ; font-weight: normal ; font-size: 14px ; line-height: 19px&quot;&gt;&lt;br&gt;&lt;/div&gt;" style="text;whiteSpace=wrap;html=1;fontSize=18;fontColor=#990000;dashed=1;" vertex="1" parent="1">
                    <mxGeometry x="120" y="190" width="260" height="110" as="geometry"/>
                </mxCell>
                <mxCell id="9" value="&amp;nbsp;&amp;lt;div&amp;gt;&lt;br&gt;&amp;nbsp; &amp;nbsp; &amp;nbsp;&amp;lt;LinkButton link={exploreLink} &amp;gt;&lt;br&gt;&amp;nbsp; &amp;nbsp; &amp;nbsp; &amp;nbsp; &amp;nbsp; &amp;nbsp;&amp;lt;span&amp;gt;Explore&amp;lt;/span&amp;gt;" style="text;html=1;strokeColor=default;fillColor=none;align=left;verticalAlign=middle;whiteSpace=wrap;rounded=0;dashed=1;labelBackgroundColor=default;fontSize=13;fontColor=#990000;" vertex="1" parent="1">
                    <mxGeometry x="120" y="190" width="250" height="100" as="geometry"/>
                </mxCell>
                <mxCell id="11" value="&amp;nbsp;&amp;lt;div&amp;gt;&lt;br&gt;&amp;nbsp; &amp;nbsp; &amp;nbsp; &amp;nbsp; &amp;lt;Link href = {props.link}&amp;gt;&lt;br&gt;&amp;nbsp; &amp;nbsp; &amp;nbsp; &amp;nbsp; &amp;nbsp; &amp;nbsp; &amp;nbsp; &amp;nbsp;{props.children}&amp;nbsp;" style="text;html=1;strokeColor=default;fillColor=none;align=left;verticalAlign=middle;whiteSpace=wrap;rounded=0;dashed=1;labelBackgroundColor=default;fontSize=13;fontColor=#990000;" vertex="1" parent="1">
                    <mxGeometry x="520" y="190" width="270" height="100" as="geometry"/>
                </mxCell>
                <mxCell id="13" value="" style="shape=doubleArrow;whiteSpace=wrap;html=1;labelBackgroundColor=default;fontSize=13;fontColor=#990000;strokeColor=default;" vertex="1" parent="1">
                    <mxGeometry x="395" y="240" width="100" height="8.75" as="geometry"/>
                </mxCell>
                <mxCell id="27" value="" style="shape=table;html=1;whiteSpace=wrap;startSize=0;container=1;collapsible=0;childLayout=tableLayout;labelBackgroundColor=default;fontSize=13;fontColor=#990000;strokeColor=default;" vertex="1" parent="1">
                    <mxGeometry x="110" y="340" width="700" height="130" as="geometry"/>
                </mxCell>
                <mxCell id="28" value="" style="shape=partialRectangle;html=1;whiteSpace=wrap;collapsible=0;dropTarget=0;pointerEvents=0;fillColor=none;top=0;left=0;bottom=0;right=0;points=[[0,0.5],[1,0.5]];portConstraint=eastwest;labelBackgroundColor=default;fontSize=13;fontColor=#990000;strokeColor=default;" vertex="1" parent="27">
                    <mxGeometry width="700" height="44" as="geometry"/>
                </mxCell>
                <mxCell id="29" value="&amp;nbsp;exploreLink = `/tours/${tourid}" style="shape=partialRectangle;html=1;whiteSpace=wrap;connectable=0;fillColor=none;top=0;left=0;bottom=0;right=0;overflow=hidden;pointerEvents=1;labelBackgroundColor=default;fontSize=14;fontColor=#990000;strokeColor=default;align=left;" vertex="1" parent="28">
                    <mxGeometry width="234" height="44" as="geometry">
                        <mxRectangle width="234" height="44" as="alternateBounds"/>
                    </mxGeometry>
                </mxCell>
                <mxCell id="30" value="/tours/t1" style="shape=partialRectangle;html=1;whiteSpace=wrap;connectable=0;fillColor=none;top=0;left=0;bottom=0;right=0;overflow=hidden;pointerEvents=1;labelBackgroundColor=default;fontSize=14;fontColor=#990000;strokeColor=default;" vertex="1" parent="28">
                    <mxGeometry x="234" width="232" height="44" as="geometry">
                        <mxRectangle width="232" height="44" as="alternateBounds"/>
                    </mxGeometry>
                </mxCell>
                <mxCell id="31" value="&amp;nbsp;props.link:&amp;nbsp; /tours/t1" style="shape=partialRectangle;html=1;whiteSpace=wrap;connectable=0;fillColor=none;top=0;left=0;bottom=0;right=0;overflow=hidden;pointerEvents=1;labelBackgroundColor=default;fontSize=14;fontColor=#990000;strokeColor=default;align=left;" vertex="1" parent="28">
                    <mxGeometry x="466" width="234" height="44" as="geometry">
                        <mxRectangle width="234" height="44" as="alternateBounds"/>
                    </mxGeometry>
                </mxCell>
                <mxCell id="32" value="" style="shape=partialRectangle;html=1;whiteSpace=wrap;collapsible=0;dropTarget=0;pointerEvents=0;fillColor=none;top=0;left=0;bottom=0;right=0;points=[[0,0.5],[1,0.5]];portConstraint=eastwest;labelBackgroundColor=default;fontSize=13;fontColor=#990000;strokeColor=default;" vertex="1" parent="27">
                    <mxGeometry y="44" width="700" height="42" as="geometry"/>
                </mxCell>
                <mxCell id="33" value="&amp;nbsp;&amp;lt;span&amp;gt;Explore&amp;lt;/span&amp;gt;" style="shape=partialRectangle;html=1;whiteSpace=wrap;connectable=0;fillColor=none;top=0;left=0;bottom=0;right=0;overflow=hidden;pointerEvents=1;labelBackgroundColor=default;fontSize=14;fontColor=#990000;strokeColor=default;align=left;" vertex="1" parent="32">
                    <mxGeometry width="234" height="42" as="geometry">
                        <mxRectangle width="234" height="42" as="alternateBounds"/>
                    </mxGeometry>
                </mxCell>
                <mxCell id="34" value="Explore" style="shape=partialRectangle;html=1;whiteSpace=wrap;connectable=0;fillColor=none;top=0;left=0;bottom=0;right=0;overflow=hidden;pointerEvents=1;labelBackgroundColor=default;fontSize=14;fontColor=#990000;strokeColor=default;" vertex="1" parent="32">
                    <mxGeometry x="234" width="232" height="42" as="geometry">
                        <mxRectangle width="232" height="42" as="alternateBounds"/>
                    </mxGeometry>
                </mxCell>
                <mxCell id="35" value="&amp;nbsp;props.children:&amp;nbsp; {children: 'Explore'}" style="shape=partialRectangle;html=1;whiteSpace=wrap;connectable=0;fillColor=none;top=0;left=0;bottom=0;right=0;overflow=hidden;pointerEvents=1;labelBackgroundColor=default;fontSize=14;fontColor=#990000;strokeColor=default;align=left;" vertex="1" parent="32">
                    <mxGeometry x="466" width="234" height="42" as="geometry">
                        <mxRectangle width="234" height="42" as="alternateBounds"/>
                    </mxGeometry>
                </mxCell>
                <mxCell id="36" value="" style="shape=partialRectangle;html=1;whiteSpace=wrap;collapsible=0;dropTarget=0;pointerEvents=0;fillColor=none;top=0;left=0;bottom=0;right=0;points=[[0,0.5],[1,0.5]];portConstraint=eastwest;labelBackgroundColor=default;fontSize=13;fontColor=#990000;strokeColor=default;" vertex="1" parent="27">
                    <mxGeometry y="86" width="700" height="44" as="geometry"/>
                </mxCell>
                <mxCell id="37" value="" style="shape=partialRectangle;html=1;whiteSpace=wrap;connectable=0;fillColor=#000000;top=0;left=0;bottom=0;right=0;overflow=hidden;pointerEvents=1;labelBackgroundColor=default;fontSize=13;fontColor=#990000;strokeColor=default;" vertex="1" parent="36">
                    <mxGeometry width="234" height="44" as="geometry">
                        <mxRectangle width="234" height="44" as="alternateBounds"/>
                    </mxGeometry>
                </mxCell>
                <mxCell id="38" value="" style="shape=partialRectangle;html=1;whiteSpace=wrap;connectable=0;fillColor=#000000;top=0;left=0;bottom=0;right=0;overflow=hidden;pointerEvents=1;labelBackgroundColor=default;fontSize=13;fontColor=#990000;strokeColor=default;" vertex="1" parent="36">
                    <mxGeometry x="234" width="232" height="44" as="geometry">
                        <mxRectangle width="232" height="44" as="alternateBounds"/>
                    </mxGeometry>
                </mxCell>
                <mxCell id="39" value="" style="shape=partialRectangle;html=1;whiteSpace=wrap;connectable=0;fillColor=#000000;top=0;left=0;bottom=0;right=0;overflow=hidden;pointerEvents=1;labelBackgroundColor=default;fontSize=13;fontColor=#990000;strokeColor=default;" vertex="1" parent="36">
                    <mxGeometry x="466" width="234" height="44" as="geometry">
                        <mxRectangle width="234" height="44" as="alternateBounds"/>
                    </mxGeometry>
                </mxCell>
                <mxCell id="40" value="&lt;br&gt;&amp;nbsp; &amp;nbsp;&amp;lt;LinkButton link='/tours/t1'&amp;gt;&amp;nbsp;&amp;nbsp;&lt;br&gt;Explore&lt;br&gt;&amp;lt;/LinkButton&amp;gt;&lt;br&gt;&amp;nbsp;&amp;nbsp;" style="shape=ext;double=1;rounded=0;whiteSpace=wrap;html=1;labelBackgroundColor=default;fontSize=14;fontColor=#990000;strokeColor=default;fillColor=#990000;" vertex="1" parent="1">
                    <mxGeometry x="330" y="530" width="260" height="150" as="geometry"/>
                </mxCell>
            </root>
        </mxGraphModel>
    </diagram>
    <diagram id="WDw9W1I6WUwIl_zKZ7vM" name="Page-1">
        <mxGraphModel grid="1" gridSize="10" guides="1" tooltips="1" connect="1" arrows="1" page="1" fold="1" pageScale="1" pageWidth="850" pageHeight="1100" math="0" shadow="0">
            <root>
                <mxCell id="0"/>
                <mxCell id="1" parent="0"/>
            </root>
        </mxGraphModel>
    </diagram>
</mxfile>